<?xml version="1.0" encoding="us-ascii" standalone="no"?><svg xmlns="http://www.w3.org/2000/svg" xmlns:xlink="http://www.w3.org/1999/xlink" contentStyleType="text/css" height="785px" preserveAspectRatio="none" style="width:3381px;height:785px;background:#FFFFFF;" version="1.1" viewBox="0 0 3381 785" width="3381px" zoomAndPan="magnify"><defs/><g><g id="NoAuth"><rect fill="#F1F1F1" height="50" rx="12.5" ry="12.5" style="stroke:#181818;stroke-width:0.5;" width="145" x="87" y="342"/><line style="stroke:#181818;stroke-width:0.5;" x1="87" x2="232" y1="369.6094" y2="369.6094"/><text fill="#000000" font-family="sans-serif" font-size="14" lengthAdjust="spacing" textLength="125" x="97" y="361.5332">SESION_CERRADA</text></g><g id="Menu"><rect fill="#F1F1F1" height="50" rx="12.5" ry="12.5" style="stroke:#181818;stroke-width:0.5;" width="167" x="590" y="342"/><line style="stroke:#181818;stroke-width:0.5;" x1="590" x2="757" y1="369.6094" y2="369.6094"/><text fill="#000000" font-family="sans-serif" font-size="14" lengthAdjust="spacing" textLength="147" x="600" y="361.5332">SISTEMA_DISPONIBLE</text></g><g id="GenerarCalendario"><rect fill="#F1F1F1" height="50" rx="12.5" ry="12.5" style="stroke:#181818;stroke-width:0.5;" width="183" x="1163.5" y="7"/><line style="stroke:#181818;stroke-width:0.5;" x1="1163.5" x2="1346.5" y1="34.6094" y2="34.6094"/><text fill="#000000" font-family="sans-serif" font-size="14" lengthAdjust="spacing" textLength="163" x="1173.5" y="26.5332">GENERAR_CALENDARIO</text></g><g id="GenerandoExamenes"><rect fill="#F1F1F1" height="50" rx="12.5" ry="12.5" style="stroke:#181818;stroke-width:0.5;" width="188" x="1636" y="492"/><line style="stroke:#181818;stroke-width:0.5;" x1="1636" x2="1824" y1="519.6094" y2="519.6094"/><text fill="#000000" font-family="sans-serif" font-size="14" lengthAdjust="spacing" textLength="168" x="1646" y="511.5332">GENERANDO_EXAMENES</text></g><g id="CalendarioGenerado"><rect fill="#F1F1F1" height="50" rx="12.5" ry="12.5" style="stroke:#181818;stroke-width:0.5;" width="194" x="2137" y="549"/><line style="stroke:#181818;stroke-width:0.5;" x1="2137" x2="2331" y1="576.6094" y2="576.6094"/><text fill="#000000" font-family="sans-serif" font-size="14" lengthAdjust="spacing" textLength="174" x="2147" y="568.5332">CALENDARIO_GENERADO</text></g><g id="RevisarCalendario"><rect fill="#F1F1F1" height="50" rx="12.5" ry="12.5" style="stroke:#181818;stroke-width:0.5;" width="175" x="2676" y="636"/><line style="stroke:#181818;stroke-width:0.5;" x1="2676" x2="2851" y1="663.6094" y2="663.6094"/><text fill="#000000" font-family="sans-serif" font-size="14" lengthAdjust="spacing" textLength="155" x="2686" y="655.5332">REVISAR_CALENDARIO</text></g><g id="ConsultarCalendario"><rect fill="#F1F1F1" height="50" rx="12.5" ry="12.5" style="stroke:#181818;stroke-width:0.5;" width="200" x="1155" y="94"/><line style="stroke:#181818;stroke-width:0.5;" x1="1155" x2="1355" y1="121.6094" y2="121.6094"/><text fill="#000000" font-family="sans-serif" font-size="14" lengthAdjust="spacing" textLength="180" x="1165" y="113.5332">CONSULTAR_CALENDARIO</text></g><g id="ExportarCalendario"><rect fill="#F1F1F1" height="50" rx="12.5" ry="12.5" style="stroke:#181818;stroke-width:0.5;" width="191" x="1159.5" y="193"/><line style="stroke:#181818;stroke-width:0.5;" x1="1159.5" x2="1350.5" y1="220.6094" y2="220.6094"/><text fill="#000000" font-family="sans-serif" font-size="14" lengthAdjust="spacing" textLength="171" x="1169.5" y="212.5332">EXPORTAR_CALENDARIO</text></g><g id="VerIncidencias"><rect fill="#F1F1F1" height="50" rx="12.5" ry="12.5" style="stroke:#181818;stroke-width:0.5;" width="140" x="1185" y="304"/><line style="stroke:#181818;stroke-width:0.5;" x1="1185" x2="1325" y1="331.6094" y2="331.6094"/><text fill="#000000" font-family="sans-serif" font-size="14" lengthAdjust="spacing" textLength="120" x="1195" y="323.5332">VER_INCIDENCIAS</text></g><g id="ImportarDatos"><rect fill="#F1F1F1" height="50" rx="12.5" ry="12.5" style="stroke:#181818;stroke-width:0.5;" width="148" x="1181" y="409"/><line style="stroke:#181818;stroke-width:0.5;" x1="1181" x2="1329" y1="436.6094" y2="436.6094"/><text fill="#000000" font-family="sans-serif" font-size="14" lengthAdjust="spacing" textLength="128" x="1191" y="428.5332">IMPORTAR_DATOS</text></g><g id="AsignacionExamenes"><rect fill="#F1F1F1" height="50" rx="12.5" ry="12.5" style="stroke:#181818;stroke-width:0.5;" width="184" x="3190" y="724"/><line style="stroke:#181818;stroke-width:0.5;" x1="3190" x2="3374" y1="751.6094" y2="751.6094"/><text fill="#000000" font-family="sans-serif" font-size="14" lengthAdjust="spacing" textLength="164" x="3200" y="743.5332">ASIGNACION_EXAMENES</text></g><ellipse cx="16" cy="367" fill="#222222" rx="10" ry="10" style="stroke:#222222;stroke-width:1.0;"/><!--link *start* to NoAuth--><g id="link_*start*_NoAuth"><path d="M26.28,367 C38.95,367 56.83,367 80.84,367 " fill="none" id="*start*-to-NoAuth" style="stroke:#181818;stroke-width:1.0;"/><polygon fill="#181818" points="86.84,367,77.84,363,81.84,367,77.84,371,86.84,367" style="stroke:#181818;stroke-width:1.0;"/></g><!--link NoAuth to Menu--><g id="link_NoAuth_Menu"><path d="M232.23,367 C326.22,367 484.69,367 583.81,367 " fill="none" id="NoAuth-to-Menu" style="stroke:#181818;stroke-width:1.0;"/><polygon fill="#181818" points="589.81,367,580.81,363,584.81,367,580.81,371,589.81,367" style="stroke:#181818;stroke-width:1.0;"/><text fill="#000000" font-family="sans-serif" font-size="13" lengthAdjust="spacing" textLength="296" x="263" y="363.4951">[USUARIO, PROFESOR, ALUMNO] iniciarSesion()</text></g><!--link Menu to NoAuth--><g id="link_Menu_NoAuth"><path d="M589.85,386.1 C572.84,390.03 560,393 560,393 C560,393 262,393 262,393 C262,393 254.7024,391.1286 237.9124,386.8286 " fill="none" id="Menu-to-NoAuth" style="stroke:#181818;stroke-width:1.0;"/><polygon fill="#181818" points="232.1,385.34,239.8262,391.4478,236.9437,386.5805,241.811,383.6979,232.1,385.34" style="stroke:#181818;stroke-width:1.0;"/><text fill="#000000" font-family="sans-serif" font-size="13" lengthAdjust="spacing" textLength="138" x="342" y="389.4951">[TODOS] cerrarSesion()</text></g><!--link Menu to ImportarDatos--><g id="link_Menu_ImportarDatos"><path d="M757.15,391.24 C774.16,396.23 787,400 787,400 C787,400 1043.3658,418.6642 1174.7858,428.2342 " fill="none" id="Menu-to-ImportarDatos" style="stroke:#181818;stroke-width:1.0;"/><polygon fill="#181818" points="1180.77,428.67,1172.0843,424.0269,1175.7832,428.3069,1171.5033,432.0058,1180.77,428.67" style="stroke:#181818;stroke-width:1.0;"/><text fill="#000000" font-family="sans-serif" font-size="13" lengthAdjust="spacing" textLength="159" x="876.5" y="396.4951">[USUARIO] importarDatos()</text></g><!--link ImportarDatos to Menu--><g id="link_ImportarDatos_Menu"><path d="M1180.83,442.51 C1151.72,445.89 1125,449 1125,449 C1125,449 787,449 787,449 C787,449 746.7993,419.6933 713.7093,395.5833 " fill="none" id="ImportarDatos-to-Menu" style="stroke:#181818;stroke-width:1.0;"/><polygon fill="#181818" points="708.86,392.05,713.7784,400.5828,712.9011,394.9944,718.4895,394.1171,708.86,392.05" style="stroke:#181818;stroke-width:1.0;"/><text fill="#000000" font-family="sans-serif" font-size="13" lengthAdjust="spacing" textLength="202" x="855" y="445.4951">[USUARIO] completarImportacion()</text></g><!--link Menu to GenerarCalendario--><g id="link_Menu_GenerarCalendario"><path d="M684.68,341.93 C712.37,273.74 787,90 787,90 C787,90 1021.6458,60.8597 1157.4458,43.9897 " fill="none" id="Menu-to-GenerarCalendario" style="stroke:#181818;stroke-width:1.0;"/><polygon fill="#181818" points="1163.4,43.25,1153.9755,40.39,1158.4381,43.8664,1154.9618,48.329,1163.4,43.25" style="stroke:#181818;stroke-width:1.0;"/><text fill="#000000" font-family="sans-serif" font-size="13" lengthAdjust="spacing" textLength="182" x="865" y="46.4951">[USUARIO] generarCalendario()</text></g><!--link GenerarCalendario to GenerandoExamenes--><g id="link_GenerarCalendario_GenerandoExamenes"><path d="M1312.44,57.08 C1334.67,66.97 1355,76 1355,76 C1355,76 1624.1993,393.4239 1703.6693,487.1339 " fill="none" id="GenerarCalendario-to-GenerandoExamenes" style="stroke:#181818;stroke-width:1.0;"/><polygon fill="#181818" points="1707.55,491.71,1704.7797,482.2588,1704.3161,487.8966,1698.6783,487.433,1707.55,491.71" style="stroke:#181818;stroke-width:1.0;"/><text fill="#000000" font-family="sans-serif" font-size="13" lengthAdjust="spacing" textLength="219" x="1386" y="110.4951">[GENERADOR] procesarGeneracion()</text></g><!--link GenerandoExamenes to CalendarioGenerado--><g id="link_GenerandoExamenes_CalendarioGenerado"><path d="M1824.43,523.21 C1935.78,530.62 2107,542 2107,542 C2107,542 2113.7945,543.7234 2131.0445,548.1034 " fill="none" id="GenerandoExamenes-to-CalendarioGenerado" style="stroke:#181818;stroke-width:1.0;"/><polygon fill="#181818" points="2136.86,549.58,2129.1212,543.4881,2132.0138,548.3495,2127.1524,551.242,2136.86,549.58" style="stroke:#181818;stroke-width:1.0;"/><text fill="#000000" font-family="sans-serif" font-size="13" lengthAdjust="spacing" textLength="251" x="1855" y="521.4951">[GENERADOR] generarFechasExamenes()</text></g><!--link CalendarioGenerado to GenerandoExamenes--><g id="link_CalendarioGenerado_GenerandoExamenes"><path d="M2136.87,572.48 C2024.59,570.7 1854,568 1854,568 C1854,568 1828.0724,557.2482 1796.9624,544.3482 " fill="none" id="CalendarioGenerado-to-GenerandoExamenes" style="stroke:#181818;stroke-width:1.0;"/><polygon fill="#181818" points="1791.42,542.05,1798.2015,549.1922,1796.0387,543.9652,1801.2657,541.8024,1791.42,542.05" style="stroke:#181818;stroke-width:1.0;"/><text fill="#000000" font-family="sans-serif" font-size="13" lengthAdjust="spacing" textLength="185" x="1888" y="564.4951">[USUARIO] solicitarCorreccion()</text></g><!--link CalendarioGenerado to RevisarCalendario--><g id="link_CalendarioGenerado_RevisarCalendario"><path d="M2331.1,583.12 C2452.57,594.64 2646,613 2646,613 C2646,613 2667.7828,621.9734 2695.9728,633.5934 " fill="none" id="CalendarioGenerado-to-RevisarCalendario" style="stroke:#181818;stroke-width:1.0;"/><polygon fill="#181818" points="2701.52,635.88,2694.7236,628.752,2696.8973,633.9745,2691.6748,636.1483,2701.52,635.88" style="stroke:#181818;stroke-width:1.0;"/><text fill="#000000" font-family="sans-serif" font-size="13" lengthAdjust="spacing" textLength="263" x="2372" y="582.4951">[USUARIO, GENERADOR] revisarConflictos()</text></g><!--link RevisarCalendario to CalendarioGenerado--><g id="link_RevisarCalendario_CalendarioGenerado"><path d="M2675.87,656.25 C2557.84,649.79 2361,639 2361,639 C2361,639 2324.5025,620.1704 2289.0425,601.8804 " fill="none" id="RevisarCalendario-to-CalendarioGenerado" style="stroke:#181818;stroke-width:1.0;"/><polygon fill="#181818" points="2283.71,599.13,2289.8751,606.8106,2288.1537,601.422,2293.5423,599.7007,2283.71,599.13" style="stroke:#181818;stroke-width:1.0;"/><text fill="#000000" font-family="sans-serif" font-size="13" lengthAdjust="spacing" textLength="283" x="2362" y="635.4951">[USUARIO, GENERADOR] aplicarCorrecciones()</text></g><!--link RevisarCalendario to AsignacionExamenes--><g id="link_RevisarCalendario_AsignacionExamenes"><path d="M2851.24,675.78 C2945.06,691.76 3088.0652,716.1327 3183.6652,732.4127 " fill="none" id="RevisarCalendario-to-AsignacionExamenes" style="stroke:#181818;stroke-width:1.0;"/><polygon fill="#181818" points="3189.58,733.42,3181.3792,727.9659,3184.651,732.5806,3180.0362,735.8523,3189.58,733.42" style="stroke:#181818;stroke-width:1.0;"/><text fill="#000000" font-family="sans-serif" font-size="13" lengthAdjust="spacing" textLength="277" x="2882" y="678.4951">[USUARIO, GENERADOR] finalizarAsignacion()</text></g><!--link AsignacionExamenes to Menu--><g id="link_AsignacionExamenes_Menu"><path d="M3189.85,754.12 C3041.57,762.44 2764.5,778 2764.5,778 C1254,778 1254,778 1254,778 C1254,778 787,651 787,651 C787,651 714.2301,467.2881 686.6901,397.7781 " fill="none" id="AsignacionExamenes-to-Menu" style="stroke:#181818;stroke-width:1.0;"/><polygon fill="#181818" points="684.48,392.2,684.0763,402.0406,686.3217,396.8484,691.5139,399.0938,684.48,392.2" style="stroke:#181818;stroke-width:1.0;"/><text fill="#000000" font-family="sans-serif" font-size="13" lengthAdjust="spacing" textLength="199" x="1881" y="774.4951">[USUARIO] completarAsignacion()</text></g><!--link Menu to ConsultarCalendario--><g id="link_Menu_ConsultarCalendario"><path d="M685.91,341.55 C714.51,277.74 787,116 787,116 C787,116 1125,116 1125,116 C1125,116 1131.6017,116.148 1148.9217,116.558 " fill="none" id="Menu-to-ConsultarCalendario" style="stroke:#181818;stroke-width:1.0;"/><polygon fill="#181818" points="1154.92,116.7,1146.0172,112.4881,1149.9214,116.5817,1145.8279,120.4859,1154.92,116.7" style="stroke:#181818;stroke-width:1.0;"/><text fill="#000000" font-family="sans-serif" font-size="13" lengthAdjust="spacing" textLength="336" x="788" y="112.4951">[USUARIO, PROFESOR, ALUMNO] consultarCalendario()</text></g><!--link ConsultarCalendario to Menu--><g id="link_ConsultarCalendario_Menu"><path d="M1154.92,136.67 C1137.6,139.75 1125,142 1125,142 C1125,142 787,197 787,197 C787,197 725.7008,289.6262 694.4108,336.9162 " fill="none" id="ConsultarCalendario-to-Menu" style="stroke:#181818;stroke-width:1.0;"/><polygon fill="#181818" points="691.1,341.92,699.4022,336.6215,693.859,337.7501,692.7304,332.207,691.1,341.92" style="stroke:#181818;stroke-width:1.0;"/><text fill="#000000" font-family="sans-serif" font-size="13" lengthAdjust="spacing" textLength="173" x="869.5" y="138.4951">[TODOS] completarConsulta()</text></g><!--link Menu to ExportarCalendario--><g id="link_Menu_ExportarCalendario"><path d="M695.4,341.92 C727.93,302.88 787,232 787,232 C787,232 1017.0427,225.0998 1153.5027,221.0098 " fill="none" id="Menu-to-ExportarCalendario" style="stroke:#181818;stroke-width:1.0;"/><polygon fill="#181818" points="1159.5,220.83,1150.3842,217.1014,1154.5022,220.9798,1150.6239,225.0978,1159.5,220.83" style="stroke:#181818;stroke-width:1.0;"/><text fill="#000000" font-family="sans-serif" font-size="13" lengthAdjust="spacing" textLength="330" x="791" y="219.4951">[USUARIO, PROFESOR, ALUMNO] exportarCalendario()</text></g><!--link ExportarCalendario to Menu--><g id="link_ExportarCalendario_Menu"><path d="M1173.03,243.11 C1147.12,251.14 1125,258 1125,258 C1125,258 787,309 787,309 C787,309 758.9225,323.4696 728.5225,339.1496 " fill="none" id="ExportarCalendario-to-Menu" style="stroke:#181818;stroke-width:1.0;"/><polygon fill="#181818" points="723.19,341.9,733.0223,341.3293,727.6337,339.608,729.3551,334.2194,723.19,341.9" style="stroke:#181818;stroke-width:1.0;"/><text fill="#000000" font-family="sans-serif" font-size="13" lengthAdjust="spacing" textLength="191" x="860.5" y="254.4951">[TODOS] completarExportacion()</text></g><!--link Menu to VerIncidencias--><g id="link_Menu_VerIncidencias"><path d="M757.15,353.04 C774.16,350.17 787,348 787,348 C787,348 1048.845,337.344 1178.845,332.054 " fill="none" id="Menu-to-VerIncidencias" style="stroke:#181818;stroke-width:1.0;"/><polygon fill="#181818" points="1184.84,331.81,1175.6848,328.1792,1179.8441,332.0133,1176.0101,336.1726,1184.84,331.81" style="stroke:#181818;stroke-width:1.0;"/><text fill="#000000" font-family="sans-serif" font-size="13" lengthAdjust="spacing" textLength="218" x="847" y="331.4951">[PROFESOR] comunicarIncidencias()</text></g><!--link VerIncidencias to Menu--><g id="link_VerIncidencias_Menu"><path d="M1184.97,353.08 C1154.3,363.78 1125,374 1125,374 C1125,374 787,374 787,374 C787,374 780.1484,373.5732 763.1384,372.5132 " fill="none" id="VerIncidencias-to-Menu" style="stroke:#181818;stroke-width:1.0;"/><polygon fill="#181818" points="757.15,372.14,765.8838,376.692,762.1403,372.451,766.3814,368.7075,757.15,372.14" style="stroke:#181818;stroke-width:1.0;"/><text fill="#000000" font-family="sans-serif" font-size="13" lengthAdjust="spacing" textLength="297" x="807.5" y="370.4951">[PROFESOR] completarComunicacionIncidencias()</text></g><!--link GenerandoExamenes to Menu--><g id="link_GenerandoExamenes_Menu"><path d="M1635.82,513.43 C1473.27,507.2 1155,495 1155,495 C1155,495 787,457 787,457 C787,457 743.8154,422.448 710.5254,395.818 " fill="none" id="GenerandoExamenes-to-Menu" style="stroke:#181818;stroke-width:1.0;"/><polygon fill="#181818" points="705.84,392.07,710.3694,400.8156,709.7445,395.1933,715.3667,394.5684,705.84,392.07" style="stroke:#181818;stroke-width:1.0;"/><text fill="#000000" font-family="sans-serif" font-size="13" lengthAdjust="spacing" textLength="193" x="1158.5" y="491.4951">[USUARIO] cancelarGeneracion()</text></g><!--link CalendarioGenerado to Menu--><g id="link_CalendarioGenerado_Menu"><path d="M2136.86,577.82 C2119.61,578.5 2107,579 2107,579 C2107,579 1854,579 1854,579 C1854,579 787,499 787,499 C787,499 732.4618,435.0066 699.8218,396.7066 " fill="none" id="CalendarioGenerado-to-Menu" style="stroke:#181818;stroke-width:1.0;"/><polygon fill="#181818" points="695.93,392.14,698.7232,401.5845,699.1731,395.9455,704.8121,396.3954,695.93,392.14" style="stroke:#181818;stroke-width:1.0;"/><text fill="#000000" font-family="sans-serif" font-size="13" lengthAdjust="spacing" textLength="175" x="1408" y="540.4951">[USUARIO] cancelarRevision()</text></g><!--link RevisarCalendario to Menu--><g id="link_RevisarCalendario_Menu"><path d="M2675.98,665.76 C2526.33,673.98 2235,690 2235,690 C1254,690 1254,690 1254,690 C1254,690 787,531 787,531 C787,531 726.7844,443.2175 695.2244,397.2175 " fill="none" id="RevisarCalendario-to-Menu" style="stroke:#181818;stroke-width:1.0;"/><polygon fill="#181818" points="691.83,392.27,693.6233,401.9542,694.6587,396.3929,700.22,397.4283,691.83,392.27" style="stroke:#181818;stroke-width:1.0;"/><text fill="#000000" font-family="sans-serif" font-size="13" lengthAdjust="spacing" textLength="175" x="1642.5" y="686.4951">[USUARIO] cancelarRevisi&#243;n()</text></g><!--SRC=[XPHTZjiW58NVlGeqJsqriu4-LA8s4o4b9e8a6caKMSWX2Qe35dQgcMwhI-Z62luB7kpCYnFRvplSopsu4CSQr1eOUJhNu22Do6kfLLJzaghaXbz08PMetqi1IbsykviegcfU2_304CCapM94AKpW0-0LI3MyrkT1WDa6hM2MOBOcAVwvH8re9THrC5cW5558inWkKPf0YacZMGWb33SnBuGwS2FrM9yc94ClS6LlcATN1utU-CN-hthzpJThqQHTuERSeeTX1Ofsc8KLKV5RLbCLnIHbs-Kc96AjgcjHJp7ePKte18BUIcqcYHsY6KvZd21xWMtJEs6mokL1s0iVEiQhpZk16z8AyQMrJNYj1nraU972s8rmj9MmaYV5Svk2OI-ZrszxyFJqevzlrFusZzmqmNVmkcLRryOZM5FoZ1YXZm0kjwkKx85KqXPecAYiwPUlKOFSx1oz8GbXUv0BOwQ4emPkYrbh_uLF107ogTF7bvQCHcjCjMRBqvUo45RJQVEsp2XOp2l1owIrwZD8zw0qEXSsKQsiimgOnYaCwzYgw-TPv6TUzQHr2xd6BeYoFpxFrdGwhOw5pDiD3jYP0i6C9o-jbVCqzbFZcXRphc4IvroFKl52_k7cXhYvJ1ZSd-iO7y8qSPBl9puF0J-SuJ6_RoS2lIjlegfHU_sPwflhzPOD2xXBTl9WNyOV80lsfJViLRb9UmBBZedHeYEshxWrSGkFVUQY7PuVVywLjk6JjH-_sJCNXeIhN1GVpkjC6RDm4_GMdSxy9-I_lmxz3m00]--></g></svg>