<svg xmlns="http://www.w3.org/2000/svg" xmlns:xlink="http://www.w3.org/1999/xlink" contentStyleType="text/css" data-diagram-type="CLASS" height="754px" preserveAspectRatio="none" style="width:2112px;height:754px;background:#FFFFFF;" version="1.1" viewBox="0 0 2112 754" width="2112px" zoomAndPan="magnify"><title>Diagrama de objetos - Gesti&#243;n de ex&#225;menes en una universidad</title><defs/><g><g class="title" data-source-line="1"><text fill="#000000" font-family="sans-serif" font-size="14" font-weight="bold" lengthAdjust="spacing" textLength="505.5313" x="796.6465" y="22.9951">Diagrama de objetos - Gesti&#243;n de ex&#225;menes en una universidad</text></g><g class="entity" data-entity="universidad" data-source-line="3" data-uid="ent0002" id="entity_universidad"><rect fill="#F1F1F1" height="44.5938" rx="2.5" ry="2.5" style="stroke:#181818;stroke-width:0.5;" width="188.627" x="1014" y="44.2969"/><text fill="#000000" font-family="sans-serif" font-size="14" lengthAdjust="spacing" textLength="81.8262" x="1067.4004" y="59.292">universidad</text><line style="stroke:#181818;stroke-width:0.5;" x1="1015" x2="1201.627" y1="64.5938" y2="64.5938"/><text fill="#000000" font-family="sans-serif" font-size="14" lengthAdjust="spacing" textLength="176.627" x="1020" y="81.5889">nombre = "Uneatlantico"</text></g><g class="entity" data-entity="facInformatica" data-source-line="7" data-uid="ent0003" id="entity_facInformatica"><rect fill="#F1F1F1" height="44.5938" rx="2.5" ry="2.5" style="stroke:#181818;stroke-width:0.5;" width="254.5186" x="981" y="166.2969"/><text fill="#000000" font-family="sans-serif" font-size="14" lengthAdjust="spacing" textLength="101.3291" x="1057.5947" y="181.292">facInformatica</text><line style="stroke:#181818;stroke-width:0.5;" x1="982" x2="1234.5186" y1="186.5938" y2="186.5938"/><text fill="#000000" font-family="sans-serif" font-size="14" lengthAdjust="spacing" textLength="242.5186" x="987" y="203.5889">nombre = "Ingenier&#237;a Inform&#225;tica"</text></g><g class="entity" data-entity="gradoInformatica" data-source-line="11" data-uid="ent0004" id="entity_gradoInformatica"><rect fill="#F1F1F1" height="44.5938" rx="2.5" ry="2.5" style="stroke:#181818;stroke-width:0.5;" width="160.4697" x="1028.5" y="288.2969"/><text fill="#000000" font-family="sans-serif" font-size="14" lengthAdjust="spacing" textLength="120.7979" x="1048.3359" y="303.292">gradoInformatica</text><line style="stroke:#181818;stroke-width:0.5;" x1="1029.5" x2="1187.9697" y1="308.5938" y2="308.5938"/><text fill="#000000" font-family="sans-serif" font-size="14" lengthAdjust="spacing" textLength="148.4697" x="1034.5" y="325.5889">nombre = "3&#186; grado"</text></g><g class="entity" data-entity="asigBD" data-source-line="15" data-uid="ent0005" id="entity_asigBD"><rect fill="#F1F1F1" height="60.8906" rx="2.5" ry="2.5" style="stroke:#181818;stroke-width:0.5;" width="208.335" x="762.5" y="410.2969"/><text fill="#000000" font-family="sans-serif" font-size="14" lengthAdjust="spacing" textLength="49.0342" x="842.1504" y="425.292">asigBD</text><line style="stroke:#181818;stroke-width:0.5;" x1="763.5" x2="969.835" y1="430.5938" y2="430.5938"/><text fill="#000000" font-family="sans-serif" font-size="14" lengthAdjust="spacing" textLength="196.335" x="768.5" y="447.5889">nombre = "Bases de Datos"</text><text fill="#000000" font-family="sans-serif" font-size="14" lengthAdjust="spacing" textLength="127.1074" x="768.5" y="463.8857">codigo = "BD101"</text></g><g class="entity" data-entity="asigProg" data-source-line="20" data-uid="ent0006" id="entity_asigProg"><rect fill="#F1F1F1" height="60.8906" rx="2.5" ry="2.5" style="stroke:#181818;stroke-width:0.5;" width="205.6484" x="1249.5" y="410.2969"/><text fill="#000000" font-family="sans-serif" font-size="14" lengthAdjust="spacing" textLength="60.2998" x="1322.1743" y="425.292">asigProg</text><line style="stroke:#181818;stroke-width:0.5;" x1="1250.5" x2="1454.1484" y1="430.5938" y2="430.5938"/><text fill="#000000" font-family="sans-serif" font-size="14" lengthAdjust="spacing" textLength="193.6484" x="1255.5" y="447.5889">nombre = "Programaci&#243;n I"</text><text fill="#000000" font-family="sans-serif" font-size="14" lengthAdjust="spacing" textLength="135.7412" x="1255.5" y="463.8857">codigo = "PRG101"</text></g><g class="entity" data-entity="examenBDJunio" data-source-line="25" data-uid="ent0007" id="entity_examenBDJunio"><rect fill="#F1F1F1" height="60.8906" rx="2.5" ry="2.5" style="stroke:#181818;stroke-width:0.5;" width="165.5625" x="451.5" y="548.2969"/><text fill="#000000" font-family="sans-serif" font-size="14" lengthAdjust="spacing" textLength="111.3164" x="478.623" y="563.292">examenBDJunio</text><line style="stroke:#181818;stroke-width:0.5;" x1="452.5" x2="616.0625" y1="568.5938" y2="568.5938"/><text fill="#000000" font-family="sans-serif" font-size="14" lengthAdjust="spacing" textLength="93.625" x="457.5" y="585.5889">tipo = "Final"</text><text fill="#000000" font-family="sans-serif" font-size="14" lengthAdjust="spacing" textLength="153.5625" x="457.5" y="601.8857">fecha = "2025-06-10"</text></g><g class="entity" data-entity="examenProgJunio" data-source-line="30" data-uid="ent0008" id="entity_examenProgJunio"><rect fill="#F1F1F1" height="60.8906" rx="2.5" ry="2.5" style="stroke:#181818;stroke-width:0.5;" width="165.5625" x="1558.5" y="548.2969"/><text fill="#000000" font-family="sans-serif" font-size="14" lengthAdjust="spacing" textLength="122.582" x="1579.9902" y="563.292">examenProgJunio</text><line style="stroke:#181818;stroke-width:0.5;" x1="1559.5" x2="1723.0625" y1="568.5938" y2="568.5938"/><text fill="#000000" font-family="sans-serif" font-size="14" lengthAdjust="spacing" textLength="93.625" x="1564.5" y="585.5889">tipo = "Final"</text><text fill="#000000" font-family="sans-serif" font-size="14" lengthAdjust="spacing" textLength="153.5625" x="1564.5" y="601.8857">fecha = "2025-06-05"</text></g><g class="entity" data-entity="profLazaro" data-source-line="35" data-uid="ent0009" id="entity_profLazaro"><rect fill="#F1F1F1" height="44.5938" rx="2.5" ry="2.5" style="stroke:#181818;stroke-width:0.5;" width="226.9902" x="7" y="694.2969"/><text fill="#000000" font-family="sans-serif" font-size="14" lengthAdjust="spacing" textLength="74.7646" x="83.1128" y="709.292">profLazaro</text><line style="stroke:#181818;stroke-width:0.5;" x1="8" x2="232.9902" y1="714.5938" y2="714.5938"/><text fill="#000000" font-family="sans-serif" font-size="14" lengthAdjust="spacing" textLength="214.9902" x="13" y="731.5889">nombre = "L&#225;zaro Hern&#225;ndez"</text></g><g class="entity" data-entity="profMasias" data-source-line="39" data-uid="ent0010" id="entity_profMasias"><rect fill="#F1F1F1" height="44.5938" rx="2.5" ry="2.5" style="stroke:#181818;stroke-width:0.5;" width="202.9141" x="1272" y="694.2969"/><text fill="#000000" font-family="sans-serif" font-size="14" lengthAdjust="spacing" textLength="75.8516" x="1335.5313" y="709.292">profMasias</text><line style="stroke:#181818;stroke-width:0.5;" x1="1273" x2="1473.9141" y1="714.5938" y2="714.5938"/><text fill="#000000" font-family="sans-serif" font-size="14" lengthAdjust="spacing" textLength="190.9141" x="1278" y="731.5889">nombre = "Manuel Mas&#237;as"</text></g><g class="entity" data-entity="franjaManana" data-source-line="43" data-uid="ent0011" id="entity_franjaManana"><rect fill="#F1F1F1" height="44.5938" rx="2.5" ry="2.5" style="stroke:#181818;stroke-width:0.5;" width="220.2021" x="269.5" y="694.2969"/><text fill="#000000" font-family="sans-serif" font-size="14" lengthAdjust="spacing" textLength="96.168" x="331.5171" y="709.292">franjaManana</text><line style="stroke:#181818;stroke-width:0.5;" x1="270.5" x2="488.7021" y1="714.5938" y2="714.5938"/><text fill="#000000" font-family="sans-serif" font-size="14" lengthAdjust="spacing" textLength="208.2021" x="275.5" y="731.5889">descripcion = "08:00 - 10:00"</text></g><g class="entity" data-entity="franjaTarde" data-source-line="47" data-uid="ent0012" id="entity_franjaTarde"><rect fill="#F1F1F1" height="44.5938" rx="2.5" ry="2.5" style="stroke:#181818;stroke-width:0.5;" width="220.2021" x="1516.5" y="694.2969"/><text fill="#000000" font-family="sans-serif" font-size="14" lengthAdjust="spacing" textLength="80.9922" x="1586.105" y="709.292">franjaTarde</text><line style="stroke:#181818;stroke-width:0.5;" x1="1517.5" x2="1735.7021" y1="714.5938" y2="714.5938"/><text fill="#000000" font-family="sans-serif" font-size="14" lengthAdjust="spacing" textLength="208.2021" x="1522.5" y="731.5889">descripcion = "17:00 - 19:00"</text></g><g class="entity" data-entity="aula1" data-source-line="51" data-uid="ent0013" id="entity_aula1"><rect fill="#F1F1F1" height="60.8906" rx="2.5" ry="2.5" style="stroke:#181818;stroke-width:0.5;" width="154.6865" x="525" y="686.2969"/><text fill="#000000" font-family="sans-serif" font-size="14" lengthAdjust="spacing" textLength="38.8281" x="582.9292" y="701.292">aula1</text><line style="stroke:#181818;stroke-width:0.5;" x1="526" x2="678.6865" y1="706.5938" y2="706.5938"/><text fill="#000000" font-family="sans-serif" font-size="14" lengthAdjust="spacing" textLength="142.6865" x="531" y="723.5889">codigo = "Aula -2.6"</text><text fill="#000000" font-family="sans-serif" font-size="14" lengthAdjust="spacing" textLength="110.127" x="531" y="739.8857">capacidad = 50</text></g><g class="entity" data-entity="aula2" data-source-line="56" data-uid="ent0014" id="entity_aula2"><rect fill="#F1F1F1" height="60.8906" rx="2.5" ry="2.5" style="stroke:#181818;stroke-width:0.5;" width="154.6865" x="1772" y="686.2969"/><text fill="#000000" font-family="sans-serif" font-size="14" lengthAdjust="spacing" textLength="38.8281" x="1829.9292" y="701.292">aula2</text><line style="stroke:#181818;stroke-width:0.5;" x1="1773" x2="1925.6865" y1="706.5938" y2="706.5938"/><text fill="#000000" font-family="sans-serif" font-size="14" lengthAdjust="spacing" textLength="142.6865" x="1778" y="723.5889">codigo = "Aula -2.4"</text><text fill="#000000" font-family="sans-serif" font-size="14" lengthAdjust="spacing" textLength="110.127" x="1778" y="739.8857">capacidad = 80</text></g><g class="entity" data-entity="alumnoAna" data-source-line="61" data-uid="ent0015" id="entity_alumnoAna"><rect fill="#F1F1F1" height="60.8906" rx="2.5" ry="2.5" style="stroke:#181818;stroke-width:0.5;" width="126.8711" x="759" y="686.2969"/><text fill="#000000" font-family="sans-serif" font-size="14" lengthAdjust="spacing" textLength="79.4473" x="782.7119" y="701.292">alumnoAna</text><line style="stroke:#181818;stroke-width:0.5;" x1="760" x2="884.8711" y1="706.5938" y2="706.5938"/><text fill="#000000" font-family="sans-serif" font-size="14" lengthAdjust="spacing" textLength="114.8711" x="765" y="723.5889">nombre = "Ana"</text><text fill="#000000" font-family="sans-serif" font-size="14" lengthAdjust="spacing" textLength="91.1504" x="765" y="739.8857">nia = "A001"</text></g><g class="entity" data-entity="alumnoLuis" data-source-line="66" data-uid="ent0016" id="entity_alumnoLuis"><rect fill="#F1F1F1" height="60.8906" rx="2.5" ry="2.5" style="stroke:#181818;stroke-width:0.5;" width="127.6982" x="1045.5" y="686.2969"/><text fill="#000000" font-family="sans-serif" font-size="14" lengthAdjust="spacing" textLength="80.2744" x="1069.2119" y="701.292">alumnoLuis</text><line style="stroke:#181818;stroke-width:0.5;" x1="1046.5" x2="1172.1982" y1="706.5938" y2="706.5938"/><text fill="#000000" font-family="sans-serif" font-size="14" lengthAdjust="spacing" textLength="115.6982" x="1051.5" y="723.5889">nombre = "Luis"</text><text fill="#000000" font-family="sans-serif" font-size="14" lengthAdjust="spacing" textLength="89.373" x="1051.5" y="739.8857">nia = "L002"</text></g><g class="entity" data-entity="alumnoMarta" data-source-line="71" data-uid="ent0017" id="entity_alumnoMarta"><rect fill="#F1F1F1" height="60.8906" rx="2.5" ry="2.5" style="stroke:#181818;stroke-width:0.5;" width="140.3242" x="1965.5" y="686.2969"/><text fill="#000000" font-family="sans-serif" font-size="14" lengthAdjust="spacing" textLength="92.9004" x="1989.2119" y="701.292">alumnoMarta</text><line style="stroke:#181818;stroke-width:0.5;" x1="1966.5" x2="2104.8242" y1="706.5938" y2="706.5938"/><text fill="#000000" font-family="sans-serif" font-size="14" lengthAdjust="spacing" textLength="128.3242" x="1971.5" y="723.5889">nombre = "Marta"</text><text fill="#000000" font-family="sans-serif" font-size="14" lengthAdjust="spacing" textLength="93.6523" x="1971.5" y="739.8857">nia = "M003"</text></g><!--link universidad to facInformatica--><g class="link" data-entity-1="universidad" data-entity-2="facInformatica" data-source-line="76" data-uid="lnk18" id="link_universidad_facInformatica"><path codeLine="76" d="M1108.5,89.5269 C1108.5,111.2769 1108.5,144.5369 1108.5,166.2269" fill="none" id="universidad-facInformatica" style="stroke:#181818;stroke-width:1;"/><polygon fill="#000000" points="1113.5,132.8633,1116.4389,123.8182,1110.5611,123.8182,1113.5,132.8633" style="stroke:#000000;stroke-width:1;"/><text fill="#000000" font-family="sans-serif" font-size="13" lengthAdjust="spacing" textLength="32.9443" x="1122.5" y="132.3638">tiene</text></g><!--link facInformatica to gradoInformatica--><g class="link" data-entity-1="facInformatica" data-entity-2="gradoInformatica" data-source-line="77" data-uid="lnk19" id="link_facInformatica_gradoInformatica"><path codeLine="77" d="M1108.5,211.5269 C1108.5,233.2769 1108.5,266.5369 1108.5,288.2269" fill="none" id="facInformatica-gradoInformatica" style="stroke:#181818;stroke-width:1;"/><polygon fill="#000000" points="1113.5,254.8633,1116.4389,245.8182,1110.5611,245.8182,1113.5,254.8633" style="stroke:#000000;stroke-width:1;"/><text fill="#000000" font-family="sans-serif" font-size="13" lengthAdjust="spacing" textLength="32.9443" x="1122.5" y="254.3638">tiene</text></g><!--link gradoInformatica to asigBD--><g class="link" data-entity-1="gradoInformatica" data-entity-2="asigBD" data-source-line="78" data-uid="lnk20" id="link_gradoInformatica_asigBD"><path codeLine="78" d="M1067.72,333.3669 C1027.85,354.4569 966.83,386.7369 922.43,410.2169" fill="none" id="gradoInformatica-asigBD" style="stroke:#181818;stroke-width:1;"/><polygon fill="#000000" points="1010.0802,374.2011,1019.4498,372.5698,1016.7016,367.3741,1010.0802,374.2011" style="stroke:#000000;stroke-width:1;"/><text fill="#000000" font-family="sans-serif" font-size="13" lengthAdjust="spacing" textLength="32.9443" x="1023.5" y="376.3638">tiene</text></g><!--link gradoInformatica to asigProg--><g class="link" data-entity-1="gradoInformatica" data-entity-2="asigProg" data-source-line="79" data-uid="lnk21" id="link_gradoInformatica_asigProg"><path codeLine="79" d="M1149.62,333.3669 C1189.82,354.4569 1251.35,386.7369 1296.1,410.2169" fill="none" id="gradoInformatica-asigProg" style="stroke:#181818;stroke-width:1;"/><polygon fill="#000000" points="1247.9276,374.1862,1241.2834,367.3815,1238.5526,372.5865,1247.9276,374.1862" style="stroke:#000000;stroke-width:1;"/><text fill="#000000" font-family="sans-serif" font-size="13" lengthAdjust="spacing" textLength="32.9443" x="1252.5" y="376.3638">tiene</text></g><!--link asigBD to examenBDJunio--><g class="link" data-entity-1="asigBD" data-entity-2="examenBDJunio" data-source-line="81" data-uid="lnk22" id="link_asigBD_examenBDJunio"><path codeLine="81" d="M794.46,471.3069 C738.87,494.0769 662.31,525.4369 606.68,548.2269" fill="none" id="asigBD-examenBDJunio" style="stroke:#181818;stroke-width:1;"/><polygon fill="#000000" points="720.8731,511.7586,730.3572,511.0496,728.1292,505.6104,720.8731,511.7586" style="stroke:#000000;stroke-width:1;"/><text fill="#000000" font-family="sans-serif" font-size="13" lengthAdjust="spacing" textLength="32.9443" x="734.5" y="514.3638">tiene</text></g><!--link asigProg to examenProgJunio--><g class="link" data-entity-1="asigProg" data-entity-2="examenProgJunio" data-source-line="82" data-uid="lnk23" id="link_asigProg_examenProgJunio"><path codeLine="82" d="M1415.21,471.3069 C1463.52,494.0369 1530.01,525.3369 1578.42,548.1069" fill="none" id="asigProg-examenProgJunio" style="stroke:#181818;stroke-width:1;"/><polygon fill="#000000" points="1524.0241,511.9922,1517.0912,505.4818,1514.5886,510.8002,1524.0241,511.9922" style="stroke:#000000;stroke-width:1;"/><text fill="#000000" font-family="sans-serif" font-size="13" lengthAdjust="spacing" textLength="32.9443" x="1528.5" y="514.3638">tiene</text></g><!--link asigBD to profLazaro--><g class="link" data-entity-1="asigBD" data-entity-2="profLazaro" data-source-line="85" data-uid="lnk24" id="link_asigBD_profLazaro"><path codeLine="85" d="M762.49,447.8569 C651.08,457.6069 471.3,482.9169 330.5,548.2969 C251.19,585.1269 175.4,657.8569 140.53,694.1469" fill="none" id="asigBD-profLazaro" style="stroke:#181818;stroke-width:1;"/><polygon fill="#000000" points="330.8512,580.7042,340.343,580.1065,338.1789,574.6415,330.8512,580.7042" style="stroke:#000000;stroke-width:1;"/><text fill="#000000" font-family="sans-serif" font-size="13" lengthAdjust="spacing" textLength="88.4482" x="344.5" y="583.3638">impartida por</text></g><!--link asigProg to profMasias--><g class="link" data-entity-1="asigProg" data-entity-2="profMasias" data-source-line="86" data-uid="lnk25" id="link_asigProg_profMasias"><path codeLine="86" d="M1354.77,471.3769 C1359.02,526.8669 1368.1,645.3669 1371.84,694.1369" fill="none" id="asigProg-profMasias" style="stroke:#181818;stroke-width:1;"/><polygon fill="#000000" points="1370.882,583.8487,1373.1213,574.6055,1367.2606,575.0546,1370.882,583.8487" style="stroke:#000000;stroke-width:1;"/><text fill="#000000" font-family="sans-serif" font-size="13" lengthAdjust="spacing" textLength="88.4482" x="1379.5" y="583.3638">impartida por</text></g><!--link asigBD to alumnoAna--><g class="link" data-entity-1="asigBD" data-entity-2="alumnoAna" data-source-line="89" data-uid="lnk26" id="link_asigBD_alumnoAna"><path codeLine="89" d="M865.82,471.3269 C864.32,513.0469 859.57,591.3869 844.5,656.2969 C842.18,666.2769 838.65,676.8569 835.08,686.2869" fill="none" id="asigBD-alumnoAna" style="stroke:#181818;stroke-width:1;"/><polygon fill="#000000" points="865.7922,583.8129,869.982,575.275,864.1633,574.4429,865.7922,583.8129" style="stroke:#000000;stroke-width:1;"/><text fill="#000000" font-family="sans-serif" font-size="13" lengthAdjust="spacing" textLength="77.854" x="875.5" y="583.3638">matriculado</text></g><!--link asigBD to alumnoLuis--><g class="link" data-entity-1="asigBD" data-entity-2="alumnoLuis" data-source-line="90" data-uid="lnk27" id="link_asigBD_alumnoLuis"><path codeLine="90" d="M893.15,471.6069 C912.22,492.9369 938.47,522.3569 961.5,548.2969 C1004.27,596.4669 1053.8,652.5969 1083.34,686.1069" fill="none" id="asigBD-alumnoLuis" style="stroke:#181818;stroke-width:1;"/><polygon fill="#000000" points="1022.8172,582.6045,1019.0154,573.8868,1014.6173,577.7864,1022.8172,582.6045" style="stroke:#000000;stroke-width:1;"/><text fill="#000000" font-family="sans-serif" font-size="13" lengthAdjust="spacing" textLength="77.854" x="1028.5" y="583.3638">matriculado</text></g><!--link asigProg to alumnoLuis--><g class="link" data-entity-1="asigProg" data-entity-2="alumnoLuis" data-source-line="91" data-uid="lnk28" id="link_asigProg_alumnoLuis"><path codeLine="91" d="M1326.26,471.3769 C1279.63,523.9669 1182.82,633.1269 1136,685.9169" fill="none" id="asigProg-alumnoLuis" style="stroke:#181818;stroke-width:1;"/><polygon fill="#000000" points="1257.1825,582.6042,1265.3828,577.7868,1260.9851,573.8869,1257.1825,582.6042" style="stroke:#000000;stroke-width:1;"/><text fill="#000000" font-family="sans-serif" font-size="13" lengthAdjust="spacing" textLength="77.854" x="1269.5" y="583.3638">matriculado</text></g><!--link asigProg to alumnoMarta--><g class="link" data-entity-1="asigProg" data-entity-2="alumnoMarta" data-source-line="92" data-uid="lnk29" id="link_asigProg_alumnoMarta"><path codeLine="92" d="M1455.7,442.6169 C1601.16,449.5669 1865.27,484.4069 2013.5,639.2969 C2025.44,651.7769 2030.97,670.3069 2033.5,686.0069" fill="none" id="asigProg-alumnoMarta" style="stroke:#181818;stroke-width:1;"/><polygon fill="#000000" points="1985.1079,580.8043,1977.913,574.5845,1975.6313,580.0014,1985.1079,580.8043" style="stroke:#000000;stroke-width:1;"/><text fill="#000000" font-family="sans-serif" font-size="13" lengthAdjust="spacing" textLength="77.854" x="1989.5" y="583.3638">matriculado</text></g><!--link examenBDJunio to franjaManana--><g class="link" data-entity-1="examenBDJunio" data-entity-2="franjaManana" data-source-line="95" data-uid="lnk30" id="link_examenBDJunio_franjaManana"><path codeLine="95" d="M451.37,605.4769 C434.06,613.9769 417.23,625.0369 404.5,639.2969 C390.92,654.5169 384.69,677.2569 381.86,693.9869" fill="none" id="examenBDJunio-franjaManana" style="stroke:#181818;stroke-width:1;"/><polygon fill="#000000" points="406.4118,651.7956,414.3098,646.4972,409.687,642.8668,406.4118,651.7956" style="stroke:#000000;stroke-width:1;"/><text fill="#000000" font-family="sans-serif" font-size="13" lengthAdjust="spacing" textLength="32.9443" x="418.5" y="652.3638">tiene</text></g><!--link examenBDJunio to aula1--><g class="link" data-entity-1="examenBDJunio" data-entity-2="aula1" data-source-line="96" data-uid="lnk31" id="link_examenBDJunio_aula1"><path codeLine="96" d="M481.31,609.4669 C464.3,622.8969 452.42,639.5069 463.5,656.2969 C471.31,668.1269 497.26,680.5669 524.67,690.9969" fill="none" id="examenBDJunio-aula1" style="stroke:#181818;stroke-width:1;"/><polygon fill="#000000" points="470.8478,652.2778,469.1954,642.9119,464.0058,645.6718,470.8478,652.2778" style="stroke:#000000;stroke-width:1;"/><text fill="#000000" font-family="sans-serif" font-size="13" lengthAdjust="spacing" textLength="82.5957" x="477.5" y="652.3638">se realiza en</text></g><!--link examenBDJunio to profLazaro--><g class="link" data-entity-1="examenBDJunio" data-entity-2="profLazaro" data-source-line="97" data-uid="lnk32" id="link_examenBDJunio_profLazaro"><path codeLine="97" d="M451.42,592.5569 C397.9,602.1669 327.4,617.4569 267.5,639.2969 C227.5,653.8769 184.61,677.1669 155.55,694.2269" fill="none" id="examenBDJunio-profLazaro" style="stroke:#181818;stroke-width:1;"/><polygon fill="#000000" points="267.7714,649.4882,277.2806,649.3281,275.3704,643.7693,267.7714,649.4882" style="stroke:#000000;stroke-width:1;"/><text fill="#000000" font-family="sans-serif" font-size="13" lengthAdjust="spacing" textLength="104.5396" x="281.5" y="652.3638">supervisado por</text></g><!--link examenBDJunio to alumnoAna--><g class="link" data-entity-1="examenBDJunio" data-entity-2="alumnoAna" data-source-line="98" data-uid="lnk33" id="link_examenBDJunio_alumnoAna"><path codeLine="98" d="M553.51,609.4769 C565.24,625.5369 581.63,644.4569 600.5,656.2969 C614.08,664.8169 698.14,686.0969 758.81,700.7569" fill="none" id="examenBDJunio-alumnoAna" style="stroke:#181818;stroke-width:1;"/><polygon fill="#000000" points="610.0688,649.8946,602.9978,643.5344,600.6098,648.9053,610.0688,649.8946" style="stroke:#000000;stroke-width:1;"/><text fill="#000000" font-family="sans-serif" font-size="13" lengthAdjust="spacing" textLength="85.2109" x="614.5" y="652.3638">realizado por</text></g><!--link examenBDJunio to alumnoLuis--><g class="link" data-entity-1="examenBDJunio" data-entity-2="alumnoLuis" data-source-line="99" data-uid="lnk34" id="link_examenBDJunio_alumnoLuis"><path codeLine="99" d="M617.8,599.4969 C733.58,626.8869 940.68,675.8669 1045.29,700.6069" fill="none" id="examenBDJunio-alumnoLuis" style="stroke:#181818;stroke-width:1;"/><polygon fill="#000000" points="866.3658,649.0141,858.24,644.0722,856.8871,649.7922,866.3658,649.0141" style="stroke:#000000;stroke-width:1;"/><text fill="#000000" font-family="sans-serif" font-size="13" lengthAdjust="spacing" textLength="85.2109" x="870.5" y="652.3638">realizado por</text></g><!--link examenProgJunio to franjaTarde--><g class="link" data-entity-1="examenProgJunio" data-entity-2="franjaTarde" data-source-line="101" data-uid="lnk35" id="link_examenProgJunio_franjaTarde"><path codeLine="101" d="M1662.66,609.3669 C1670.19,623.4769 1675.66,640.6469 1670.5,656.2969 C1665.92,670.2069 1656.69,683.5269 1647.86,694.0269" fill="none" id="examenProgJunio-franjaTarde" style="stroke:#181818;stroke-width:1;"/><polygon fill="#000000" points="1676.639,652.7886,1681.0916,644.3847,1675.3016,643.3725,1676.639,652.7886" style="stroke:#000000;stroke-width:1;"/><text fill="#000000" font-family="sans-serif" font-size="13" lengthAdjust="spacing" textLength="32.9443" x="1686.5" y="652.3638">tiene</text></g><!--link examenProgJunio to aula2--><g class="link" data-entity-1="examenProgJunio" data-entity-2="aula2" data-source-line="102" data-uid="lnk36" id="link_examenProgJunio_aula2"><path codeLine="102" d="M1686.63,609.3069 C1721.4,632.0369 1769.26,663.3369 1804.1,686.1069" fill="none" id="examenProgJunio-aula2" style="stroke:#181818;stroke-width:1;"/><polygon fill="#000000" points="1766.685,650.5993,1760.7225,643.1899,1757.5061,648.1096,1766.685,650.5993" style="stroke:#000000;stroke-width:1;"/><text fill="#000000" font-family="sans-serif" font-size="13" lengthAdjust="spacing" textLength="82.5957" x="1771.5" y="652.3638">se realiza en</text></g><!--link examenProgJunio to profMasias--><g class="link" data-entity-1="examenProgJunio" data-entity-2="profMasias" data-source-line="103" data-uid="lnk37" id="link_examenProgJunio_profMasias"><path codeLine="103" d="M1594.45,609.4069 C1570.09,624.2369 1539.64,642.0169 1511.5,656.2969 C1484.51,669.9869 1453.64,683.4869 1427.96,694.1569" fill="none" id="examenProgJunio-profMasias" style="stroke:#181818;stroke-width:1;"/><polygon fill="#000000" points="1542.0441,650.1315,1551.4381,648.6474,1548.7717,643.4091,1542.0441,650.1315" style="stroke:#000000;stroke-width:1;"/><text fill="#000000" font-family="sans-serif" font-size="13" lengthAdjust="spacing" textLength="104.5396" x="1555.5" y="652.3638">supervisado por</text></g><!--link examenProgJunio to alumnoLuis--><g class="link" data-entity-1="examenProgJunio" data-entity-2="alumnoLuis" data-source-line="104" data-uid="lnk38" id="link_examenProgJunio_alumnoLuis"><path codeLine="104" d="M1558.29,600.3869 C1512.58,611.7569 1454.88,626.1869 1403.5,639.2969 C1324.29,659.5069 1233.22,683.2869 1173.69,698.9069" fill="none" id="examenProgJunio-alumnoLuis" style="stroke:#181818;stroke-width:1;"/><polygon fill="#000000" points="1403.6564,649.104,1413.1479,649.7065,1411.6893,644.0125,1403.6564,649.104" style="stroke:#000000;stroke-width:1;"/><text fill="#000000" font-family="sans-serif" font-size="13" lengthAdjust="spacing" textLength="85.2109" x="1417.5" y="652.3638">realizado por</text></g><!--link examenProgJunio to alumnoMarta--><g class="link" data-entity-1="examenProgJunio" data-entity-2="alumnoMarta" data-source-line="105" data-uid="lnk39" id="link_examenProgJunio_alumnoMarta"><path codeLine="105" d="M1724.54,598.9469 C1766.39,609.4069 1817.64,623.4469 1862.5,639.2969 C1900.59,652.7569 1942.01,670.9369 1974.77,686.2069" fill="none" id="examenProgJunio-alumnoMarta" style="stroke:#181818;stroke-width:1;"/><polygon fill="#000000" points="1915.2212,649.5096,1907.6482,643.7563,1905.7128,649.3064,1915.2212,649.5096" style="stroke:#000000;stroke-width:1;"/><text fill="#000000" font-family="sans-serif" font-size="13" lengthAdjust="spacing" textLength="85.2109" x="1919.5" y="652.3638">realizado por</text></g><!--SRC=[bLJ1Qjj04BthAvRSLLPEdQQ656nCKnSRGca_O2AjtGtIhjYLGd3fn_W3Ukgjn-h7EhjIhDN8RWZ666RUU_AyDwDALhbWImax0mMmJ31z_o0gRLdCReMjPFDRkQfuQWw5KC8oeLYj0B_oKHWhCyYYo77IAgon7n5ZIXVtHh0RTl5D2QXoK9LCzKNqyyZOGhfIMsqAm0uGqahjX9B2DB-0jQZcu62X0FxjJ9-NkFpxfuM47B1ojrWIv08i3eUJBW6dly1UgZEvqxwtJ7X25UwCtX4DLt8sfjwrrL3axiijKH5FW9Okbf_HD-sbAbbwx4Uf87VqhKY_WwjC-6GQywiuuMC5zzZNQF1fg54QlLt37emcqwoRWwz-4aOr1vM9FQLjq0UmXBO1LOkSOGzpiuEm3QW7m3v-F2aJDZMoJALMZiclPvpZtYKSVyV4hs0mdXEyv5t7UqzuKEUGU4OVmnnhB9wykVBfG8bXkNMzOLDEc9CppBUKUJrWvdMXz5pHJSIAuodfevXpib2UjQubTTEL0jwQyycOjm5JmIW6h0NC3UUNdXaUQHpJ2vpX_k2PimyHQI1qT6izUDH2U7TcBuFy9VMmg2DYTtWXFUJ8EcBw6mY40gLWosTC5YMwWmwmKXiY5-pr61Wgza7F6CvZP8hxaUbEBiJuM4-1df_vAbWRDiL5qT0hbsnuRhqh8rnx9JDc1JC2Sha7zuu_0HnuQEjIc4TftUDRSyR2WKETyalWpWEAZcZ8n_7QbmATRW1iR_dSV0Fe8Fnp4mx5__Utp-AVCoI4Vm00]--></g></svg>